<svg width="155" height="47" viewBox="0 0 155 47" fill="none" xmlns="http://www.w3.org/2000/svg">
<path fill-rule="evenodd" clip-rule="evenodd" d="M21.9105 0C34.011 0.000143918 43.8209 10.0604 43.8209 22.47C43.8208 34.8795 34.0109 44.9398 21.9105 44.94C9.80988 44.94 0.000140343 34.8795 0 22.47C0 10.0603 9.8098 0 21.9105 0ZM24.8946 5.49701C24.1396 5.61536 22.8486 6.0509 21.0219 6.80377C19.1952 7.55668 17.1962 8.57509 15.026 9.86006C10.9537 12.2713 8.47815 14.6322 7.59923 16.9419C6.72044 19.2518 6.91262 21.5307 8.1771 23.7767C9.44141 26.0225 10.9293 27.2048 12.6395 27.3244C14.3499 27.4438 16.9593 26.684 20.4664 25.0457L21.0219 26.0325C17.405 28.174 14.4153 29.3049 12.0537 29.4249L17.8364 39.6967L18.9698 39.5186C19.7517 39.3842 21.0696 38.9332 22.9227 38.1646C24.7493 37.4117 26.7207 36.4086 28.8371 35.1555C32.5077 32.9821 34.8249 30.6238 35.7873 28.0817C36.7497 25.5397 36.552 23.0634 35.195 20.6529C33.8534 18.2701 32.1454 16.9811 30.0705 16.7853C27.9955 16.5896 25.4475 17.2032 22.4265 18.6267L21.871 17.6412C23.5322 16.6576 25.2385 15.8473 26.9889 15.2126C28.7275 14.6214 30.0799 14.296 31.0459 14.2353L26.0267 5.31882L24.8946 5.49701Z" fill="#4488FC"/>
<path d="M131.265 44.3574C130.168 44.3574 129.33 44.1451 128.75 43.7206V47H119.499V25.2222H127.291L127.602 27.5464C127.974 26.4214 128.802 25.6361 130.085 25.1903C130.623 24.9993 131.224 24.9038 131.886 24.9038C134.204 24.9038 135.943 25.8165 137.102 27.6419C138.261 29.4461 138.84 31.8234 138.84 34.7738C138.84 37.7243 138.178 40.0591 136.853 41.7784C135.549 43.4977 133.687 44.3574 131.265 44.3574ZM128.285 34.3918V37.0662C128.285 37.3422 128.357 37.5651 128.502 37.7349C128.668 37.9047 128.875 37.9896 129.123 37.9896C129.392 37.9896 129.609 37.9047 129.775 37.7349C129.961 37.5651 130.054 37.3422 130.054 37.0662V34.3918C130.054 34.1371 129.961 33.9248 129.775 33.755C129.609 33.564 129.402 33.4684 129.154 33.4684C128.906 33.4684 128.699 33.564 128.533 33.755C128.367 33.9248 128.285 34.1371 128.285 34.3918Z" fill="#4488FC"/>
<path d="M117.288 32.0039L117.133 35.92L117.909 35.8882V43.1156C117.536 43.434 116.895 43.7206 115.984 43.9753C115.073 44.23 114.214 44.3574 113.407 44.3574C112.6 44.3574 111.958 44.2831 111.482 44.1345C111.006 43.9859 110.654 43.8267 110.427 43.6569C110.199 43.4659 110.023 43.2536 109.899 43.0201C109.713 42.6805 109.62 42.394 109.62 42.1605C108.481 43.6251 106.67 44.3574 104.187 44.3574C100.771 44.3574 99.0639 42.8715 99.0639 39.8999C99.0639 38.1169 99.7262 36.854 101.051 36.1111C102.376 35.3469 104.694 34.8906 108.005 34.742C108.005 33.9991 107.208 33.6276 105.615 33.6276C104.538 33.6276 103.504 33.7656 102.51 34.0415C101.537 34.3175 100.834 34.5934 100.399 34.8694L99.7159 35.2833V26.9096C99.9022 26.761 100.182 26.5806 100.554 26.3684C100.927 26.1349 101.806 25.8377 103.193 25.4769C104.58 25.0948 106.101 24.9038 107.757 24.9038C111.068 24.9038 113.48 25.4769 114.991 26.6231C116.522 27.7693 117.288 29.5629 117.288 32.0039ZM108.502 37.0662V35.7927L106.732 36.3021V37.0662C106.732 37.3422 106.815 37.5651 106.981 37.7349C107.167 37.9047 107.384 37.9896 107.633 37.9896C107.902 37.9896 108.109 37.9047 108.254 37.7349C108.419 37.5651 108.502 37.3422 108.502 37.0662Z" fill="#4488FC"/>
<path d="M94.5872 44.039H84.4662L83.7211 37.5438H83.0381L82.324 44.039H71.8925L69.0984 25.2222H78.3501L79.1263 32.4815H79.8093L80.3371 25.7953H86.6084L87.2293 32.4815H87.8813L88.6885 25.2222H97.6918L94.5872 44.039Z" fill="#4488FC"/>
<path d="M59.6349 24.9038C61.27 24.9038 62.7395 24.9993 64.0434 25.1903C65.3681 25.3814 66.2788 25.5724 66.7755 25.7634L67.4896 26.05V34.0097C66.0821 33.2668 63.9814 32.8953 61.1872 32.8953V33.6595C63.7537 33.9142 65.513 34.3706 66.465 35.0286C67.4171 35.6866 67.8932 36.8858 67.8932 38.6264C67.8932 40.3669 67.2619 41.7572 65.9994 42.7972C64.7368 43.8373 62.5325 44.3574 59.3865 44.3574C57.71 44.3574 56.2198 44.2618 54.9159 44.0708C53.6119 43.8798 52.722 43.6887 52.2459 43.4977L51.5319 43.2112V36.3021C52.1114 36.5993 53.0014 36.8752 54.2018 37.1299C55.423 37.3634 56.6752 37.4802 57.9584 37.4802V36.716C55.7438 36.5038 54.0673 35.9837 52.9289 35.1559C51.7906 34.3281 51.2214 32.9909 51.2214 31.1442C51.2214 29.2763 51.9148 27.7693 53.3015 26.6231C54.6882 25.4769 56.7994 24.9038 59.6349 24.9038Z" fill="#4488FC"/>
<path d="M144.223 29.8157C143.322 29.8157 142.481 29.7553 141.698 29.6345C140.916 29.5136 140.299 29.3686 139.849 29.1995L140.418 23.9433C140.845 24.04 141.307 24.1125 141.805 24.1608C142.303 24.2333 142.789 24.2696 143.263 24.2696C145.919 23.9433 147.157 22.0268 147.744 18.071C147.175 19.5451 146.369 20.6205 145.326 21.2971C144.283 21.9496 143.05 22.2759 141.627 22.2759C139.422 22.2759 137.715 21.4663 136.505 19.8472C135.296 18.2039 134.692 15.896 134.692 12.9236V4.58628H143.847V13.3223C143.847 15.4731 143.947 16.4527 144.437 16.5485C145.176 16.693 145.506 16.3544 145.506 14.1531C145.506 11.9519 145.514 7.61526 145.514 4.58628H155V18.506C155 22.3725 154.063 25.2241 152.19 27.0608C150.317 28.8974 147.661 29.8157 144.223 29.8157Z" fill="#4488FC"/>
<path d="M133.262 23.72H125.438L125.128 21.3958C125.045 21.6292 124.869 21.9158 124.6 22.2554C124.351 22.595 124.082 22.8816 123.793 23.1151C123.027 23.7306 122.044 24.0384 120.843 24.0384C118.67 24.0384 116.973 23.1894 115.752 21.4913C114.531 19.7932 113.92 17.4265 113.92 14.3912C113.92 11.3347 114.541 8.93613 115.783 7.1956C117.025 5.45507 118.722 4.58481 120.874 4.58481C121.537 4.58481 122.127 4.66971 122.644 4.83952C123.161 4.9881 123.513 5.13668 123.7 5.28526L123.979 5.50813V0H133.262V23.72ZM122.706 14.0728V16.7473C122.706 17.0232 122.778 17.2461 122.923 17.4159C123.089 17.5857 123.296 17.6706 123.544 17.6706C123.813 17.6706 124.031 17.5857 124.196 17.4159C124.383 17.2461 124.476 17.0232 124.476 16.7473V14.0728C124.476 13.8181 124.383 13.6058 124.196 13.436C124.031 13.245 123.824 13.1495 123.575 13.1495C123.327 13.1495 123.12 13.245 122.954 13.436C122.789 13.6058 122.706 13.8181 122.706 14.0728Z" fill="#4488FC"/>
<path d="M101.574 13.6271V23.72H92.788V4.90319H100.581L100.891 7.22743C100.974 6.99394 101.16 6.70739 101.45 6.36778C101.74 6.02816 102.05 5.74161 102.381 5.50812C103.292 4.89257 104.503 4.5848 106.014 4.5848C108.042 4.5848 109.563 5.1579 110.577 6.3041C111.612 7.4503 112.13 9.11654 112.13 11.3028V23.72H103.344V13.6271C103.344 13.3723 103.251 13.1601 103.064 12.9903C102.899 12.7992 102.692 12.7037 102.443 12.7037C102.195 12.7037 101.988 12.7992 101.822 12.9903C101.657 13.1601 101.574 13.3723 101.574 13.6271Z" fill="#4488FC"/>
<path d="M90.5775 11.6849L90.4222 15.6011L91.1984 15.5692V22.7967C90.8258 23.115 90.1842 23.4016 89.2735 23.6563C88.3628 23.911 87.5039 24.0384 86.6967 24.0384C85.8895 24.0384 85.2479 23.9641 84.7718 23.8155C84.2958 23.6669 83.9439 23.5077 83.7163 23.3379C83.4886 23.1469 83.3127 22.9346 83.1885 22.7011C83.0022 22.3615 82.9091 22.075 82.9091 21.8415C81.7707 23.3061 79.9597 24.0384 77.476 24.0384C74.0609 24.0384 72.3534 22.5526 72.3534 19.5809C72.3534 17.7979 73.0157 16.535 74.3403 15.7921C75.665 15.028 77.9831 14.5716 81.2947 14.423C81.2947 13.6801 80.4978 13.3087 78.9041 13.3087C77.8278 13.3087 76.793 13.4466 75.7995 13.7226C74.8267 13.9985 74.123 14.2744 73.6884 14.5504L73.0053 14.9643V6.59065C73.1916 6.44207 73.471 6.26165 73.8436 6.04939C74.2161 5.8159 75.0958 5.51874 76.4825 5.1579C77.8692 4.77583 79.3905 4.5848 81.0463 4.5848C84.3579 4.5848 86.7691 5.1579 88.28 6.3041C89.8117 7.4503 90.5775 9.24389 90.5775 11.6849ZM81.7914 16.7473V15.4737L80.0218 15.9831V16.7473C80.0218 17.0232 80.1046 17.2461 80.2701 17.4159C80.4564 17.5857 80.6737 17.6706 80.9221 17.6706C81.1912 17.6706 81.3981 17.5857 81.543 17.4159C81.7086 17.2461 81.7914 17.0232 81.7914 16.7473Z" fill="#4488FC"/>
<path d="M61.7771 23.72V13.6271C61.7771 13.3723 61.6839 13.1601 61.4977 12.9903C61.3321 12.7992 61.1251 12.7037 60.8767 12.7037C60.6284 12.7037 60.4214 12.7992 60.2558 12.9903C60.0902 13.1601 60.0075 13.3723 60.0075 13.6271V23.72H51.2214V0H60.4731V4.01171L60.1627 6.74985C60.2455 6.47392 60.3904 6.19798 60.5973 5.92204C60.8043 5.6461 61.2493 5.35955 61.9323 5.06239C62.6153 4.744 63.4536 4.58481 64.4471 4.58481C66.4754 4.58481 67.9967 5.15791 69.0108 6.30411C70.0457 7.45031 70.5631 9.11655 70.5631 11.3028V23.72H61.7771Z" fill="#4488FC"/>
</svg>
