<svg width="44" height="44" viewBox="0 0 44 44" fill="none" xmlns="http://www.w3.org/2000/svg">
<g clip-path="url(#clip0_73_24113)">
<path fill-rule="evenodd" clip-rule="evenodd" d="M22 0C34.15 0.000140908 44 9.84997 44 22C43.9999 34.1499 34.1499 43.9998 22 44C9.84997 44 0.000140917 34.1499 0 22C0 9.84987 9.84989 0 22 0ZM24.9963 5.38203C24.2383 5.49791 22.942 5.92433 21.1078 6.66146C19.2737 7.39862 17.2665 8.39573 15.0874 9.65382C10.9985 12.0146 8.5128 14.3261 7.63029 16.5875C6.74791 18.8491 6.94087 21.0803 8.21052 23.2794C9.48 25.4782 10.974 26.6358 12.6912 26.7529C14.4085 26.8698 17.0286 26.1259 20.55 24.5218L21.1078 25.488C17.4761 27.5847 14.4742 28.6919 12.103 28.8094L17.9093 38.8664L19.0473 38.692C19.8324 38.5604 21.1557 38.1188 23.0164 37.3663C24.8505 36.6292 26.8299 35.647 28.955 34.4202C32.6406 32.2922 34.9672 29.9832 35.9336 27.4943C36.8999 25.0055 36.7014 22.581 35.3388 20.2209C33.9918 17.8879 32.2768 16.6259 30.1934 16.4342C28.1099 16.2426 25.5515 16.8434 22.5182 18.2371L21.9604 17.2722C23.6284 16.3092 25.3417 15.5158 27.0992 14.8944C28.8449 14.3156 30.2028 13.997 31.1728 13.9375L26.1331 5.20757L24.9963 5.38203Z" fill="#4488FC"/>
</g>
<defs>
<clipPath id="clip0_73_24113">
<rect width="44" height="44" fill="white"/>
</clipPath>
</defs>
</svg>
